<svg xmlns="http://www.w3.org/2000/svg" xmlns:xlink="http://www.w3.org/1999/xlink" width="221" height="163" viewBox="0 0 221 163">
  <defs>
    <linearGradient id="linear-gradient" x1="0.589" y1="-2.58" x2="0.523" y2="-2.773" gradientUnits="objectBoundingBox">
      <stop offset="0"/>
      <stop offset="0.99" stop-opacity="0"/>
    </linearGradient>
    <linearGradient id="linear-gradient-2" x1="0.5" x2="1.152" gradientUnits="objectBoundingBox">
      <stop offset="0" stop-color="#c9a885"/>
      <stop offset="1" stop-color="#755f46"/>
    </linearGradient>
    <linearGradient id="linear-gradient-3" x1="0.142" y1="-0.413" x2="1.142" y2="-0.413" gradientUnits="objectBoundingBox">
      <stop offset="0" stop-color="#183866"/>
      <stop offset="1" stop-color="#1a7fc1"/>
    </linearGradient>
    <linearGradient id="linear-gradient-4" y1="0.5" x2="1" y2="0.5" gradientUnits="objectBoundingBox">
      <stop offset="0" stop-color="#ecc4d7"/>
      <stop offset="0.42" stop-color="#efd4d1"/>
      <stop offset="1" stop-color="#f2eac9"/>
    </linearGradient>
    <linearGradient id="linear-gradient-5" x1="0.99" y1="-1.633" x2="1.99" y2="-1.633" xlink:href="#linear-gradient-4"/>
    <linearGradient id="linear-gradient-6" x1="1.243" y1="-0.846" x2="2.243" y2="-0.846" xlink:href="#linear-gradient-4"/>
    <linearGradient id="linear-gradient-7" x1="0" y1="0.5" x2="1" y2="0.5" xlink:href="#linear-gradient-3"/>
    <linearGradient id="linear-gradient-8" x1="-0.001" y1="0.501" x2="1" y2="0.501" xlink:href="#linear-gradient"/>
    <linearGradient id="linear-gradient-9" x1="1.761" y1="-5.66" x2="3.104" y2="-5.346" gradientUnits="objectBoundingBox">
      <stop offset="0" stop-color="#7e490d"/>
      <stop offset="0.99" stop-opacity="0"/>
      <stop offset="1" stop-opacity="0"/>
    </linearGradient>
    <linearGradient id="linear-gradient-10" x1="23.61" y1="-165.849" x2="21.626" y2="-166.475" xlink:href="#linear-gradient"/>
    <linearGradient id="linear-gradient-11" x1="2.414" y1="-4.261" x2="1.331" y2="-4.122" xlink:href="#linear-gradient"/>
    <linearGradient id="linear-gradient-12" x1="0.301" y1="1" x2="0.5" y2="1" gradientUnits="objectBoundingBox">
      <stop offset="0" stop-color="#a83d26"/>
      <stop offset="1" stop-color="#541f13"/>
    </linearGradient>
    <linearGradient id="linear-gradient-13" x1="0.581" y1="-14.736" x2="0.572" y2="-13.702" xlink:href="#linear-gradient"/>
    <linearGradient id="linear-gradient-14" x1="39.909" y1="-342.252" x2="38.744" y2="-342.683" xlink:href="#linear-gradient"/>
    <clipPath id="clip-illustration-working-brown">
      <rect width="221" height="163"/>
    </clipPath>
  </defs>
  <g id="illustration-working-brown" clip-path="url(#clip-illustration-working-brown)">
    <rect width="221" height="163" fill="rgba(255,255,255,0)"/>
    <path id="Path_1" data-name="Path 1" d="M243.717,30.621c-6.964-7.433-12.356-16.307-20.679-22.373C209.963-1.3,191.145-2.231,175.857,3.767s-27.2,18.089-35.048,31.78c-4.129,7.2-7.373,15.061-13.423,20.947-5.115,4.973-11.838,8.146-18.212,11.6C98.9,73.652,89,80.366,82.351,89.579s-9.623,21.312-5.372,31.694c2.867,7.006,8.641,12.58,14.556,17.626,6.961,5.934,14.444,11.49,23.079,15.025,10.81,4.4,22.811,5.344,34.579,5.792a473.379,473.379,0,0,0,62.535-1.768c17.012-1.609,34.539-4.354,48.772-13.243,19.938-12.447,30.218-35.253,32.533-57.617.942-8.945.7-18.24-2.977-26.539-8.8-19.851-32.548-15.208-46.339-29.93Z" transform="translate(-75 0)" fill="#fff1d9"/>
    <path id="Path_2" data-name="Path 2" d="M162.743,202.111s-5.512-.979-7.056,2.879,0,17.179,0,17.179l20.566,14.7Z" transform="translate(-72.435 -131.922)" fill="#3f3d56"/>
    <path id="Path_7" data-name="Path 7" d="M226,310h4.649v19.592a2.323,2.323,0,1,1-4.647,0V310Z" transform="translate(-119.858 -204.059)" fill="#7e490d"/>
    <path id="Path_11" data-name="Path 11" d="M225.073,330.958a1.918,1.918,0,0,1-.073-.525V311h1.973v20.943a.625.625,0,0,0,.019.309,3.081,3.081,0,0,0-.945-.17,5.978,5.978,0,0,0-.689,0l.141-.033c.087-.013-.312-.694-.426-1.091Z" transform="translate(-119.19 -204.727)" opacity="0.31" fill="url(#linear-gradient)"/>
    <path id="Path_15" data-name="Path 15" d="M214.248,73.773s-.092-6.909-5.67-6.313-5.151-1.692-7.534-1.441-5.15,2.585-4.356,5.468-2.1,3.528-4.006,5.715.448,3.977,3.655,6.115-.2,1.585,1.7,4.966,8.337-.938,8.337-.938Z" transform="translate(-97.148 -41.083)" fill="#503164"/>
    <path id="Path_16" data-name="Path 16" d="M118.881,322.655l3.9.133v-31.13s.2-8.05,7.788-8.857S207,272.019,207,272.019s2.729-.289,4.3,4.948,3.1,25.831,3.1,25.831l21.133,2.848s.558-36.378-7.074-38.385-107.431,8.222-107.431,8.222-7.4,38.637-2.153,47.172Z" transform="translate(-47.053 -175.338)" fill="#2bd0d0"/>
    <path id="Path_17" data-name="Path 17" d="M118.881,322.655l3.9.133v-31.13s.2-8.05,7.788-8.857S207,272.019,207,272.019s2.729-.289,4.3,4.948,3.1,25.831,3.1,25.831l21.133,2.848s.558-36.378-7.074-38.385-107.431,8.222-107.431,8.222-7.4,38.637-2.153,47.172Z" transform="translate(-47.053 -175.338)" fill="url(#linear-gradient-2)"/>
    <path id="Path_18" data-name="Path 18" d="M62,255.169s1.907-10.545,15.323-13.309l94.7-10.84s9.3-.385,13.55,2.187,10.323,4.7,12.812,16.345,3.084,31.527,3.084,31.527l-2.354.365s-3.436-36.009-7.077-38.289S89.959,254.864,89.959,254.864s-6.828,1.357-7.422,11.467,0,32.079,0,32.079L62,290.127Z" transform="translate(-10.317 -151.293)" fill="#ddbe9b"/>
    <path id="Path_19" data-name="Path 19" d="M234.913,241.944a89.728,89.728,0,0,0-14.783-.9c-3.712.144-7.4.653-11.082,1.16l-32.468,4.484a1.873,1.873,0,0,0-1.454.679c-.529.914.714,1.814,1.721,2.162,10.8,3.738,22.329,7.523,33.442,4.858,5.081-1.218,9.8-3.748,14.953-4.627s10.443-.07,15.585-.9c4.834-.779,9.436-2.992,14.336-3.013a14.219,14.219,0,0,0,4.475-.279c1.426-.47,2.686-1.906,2.291-3.337-4.6-.159-9.764-1-14.276-.087C243.186,243.042,239.385,241.944,234.913,241.944Z" transform="translate(-85.793 -157.971)" opacity="0.19" fill="url(#linear-gradient-3)"/>
    <path id="Path_20" data-name="Path 20" d="M267,253.783l.189.7s5.606,3.378,5.57,3.487,23.253-5.393,23.253-5.393l.542-1.579Z" transform="translate(-147.243 -164.651)" fill="#2bd0d0"/>
    <path id="Path_21" data-name="Path 21" d="M267,253.783l.189.7s5.606,3.378,5.57,3.487,23.253-5.393,23.253-5.393l.542-1.579Z" transform="translate(-147.243 -164.651)"/>
    <path id="Path_22" data-name="Path 22" d="M268,250.438,288.624,246l8.6,1.678-23.43,5.627Z" transform="translate(-147.911 -161.311)" fill="#2bd0d0"/>
    <path id="Path_23" data-name="Path 23" d="M268,250.438,288.624,246l8.6,1.678-23.43,5.627Z" transform="translate(-147.911 -161.311)" fill="#3c2409"/>
    <path id="Path_24" data-name="Path 24" d="M244.6,262.814l4.8.17s1.219.076,1.534-.9-1.956-3.042-2.2-3.081-6.562,1.733-5.651,3.505l1.515.307Z" transform="translate(-131.213 -169.995)" fill="#2bd0d0"/>
    <path id="Path_25" data-name="Path 25" d="M244.6,262.814l4.8.17s1.219.076,1.534-.9-1.956-3.042-2.2-3.081-6.562,1.733-5.651,3.505l1.515.307Z" transform="translate(-131.213 -169.995)"/>
    <path id="Path_30" data-name="Path 30" d="M13.163,237.625a15.136,15.136,0,0,1-3.107-1.617c-1.842-1.494-2.309-4.067-2.886-6.375s-1.693-4.846-3.966-5.508a2.612,2.612,0,0,0-2.5.462,2.841,2.841,0,0,0-.634,2.628,15.592,15.592,0,0,0,.991,2.648,12.246,12.246,0,0,1,.721,6.468c-.287,1.79-.974,3.6-.533,5.358.748,2.977,4.473,4.722,4.576,7.789.07,2.07-1.622,3.985-1.239,6.022.283,1.507,1.662,2.683,1.737,4.215.083,1.737-1.548,3.206-1.469,4.943s1.8,2.9,2.927,4.263a7.124,7.124,0,0,1,1.6,4.049,10.539,10.539,0,0,0,.241,2.765,10.057,10.057,0,0,0,1,1.765,17.786,17.786,0,0,0,1.109,1.878,4.548,4.548,0,0,0,4.89,1.544c.349-2.308.044-4.662.14-6.995.191-4.519,1.89-9.073.8-13.46a31.063,31.063,0,0,1-1.3-4.786,16.7,16.7,0,0,1,.542-4.389,35.372,35.372,0,0,0,.322-9.144c-.182-2.409-1.866-3.52-3.968-4.521Z" transform="translate(31.095 -146.617)" fill="#2bd0d0"/>
    <path id="Path_31" data-name="Path 31" d="M52.57,251.5c-.018,2.013.442,4.094-.2,6.005-.488,1.448-1.561,2.635-2.116,4.059-1.278,3.287.442,6.973.091,10.483a37.55,37.55,0,0,1-.956,4.255,17.014,17.014,0,0,0-.283,5.474,1.385,1.385,0,0,0,1.1,1.442,17.247,17.247,0,0,0,3.346.9,8.846,8.846,0,0,1,1.144-6.173c1.751-2.866,5.154-4.8,5.788-8.089.428-2.229-.569-4.491-.5-6.759a7.268,7.268,0,0,1,1.488-4.167c.824-1.072,1.939-1.9,2.705-3.012,1.842-2.678,1.268-6.259.72-9.462s-.866-6.89,1.3-9.317c.685-.767,1.577-1.343,2.2-2.163a4.982,4.982,0,0,0-.574-6.277,6.317,6.317,0,0,0-6.382-1.367,4.6,4.6,0,0,0-2.328,1.581c-1.1,1.565-.662,3.7-.194,5.564a9.2,9.2,0,0,1,.179,5.111c-.417,1.212-1.475,1.87-2.374,2.714a12.918,12.918,0,0,0-4.152,9.2Z" transform="translate(-1.634 -148.621)" fill="#2bd0d0"/>
    <path id="Path_32" data-name="Path 32" d="M17.62,267.342c-.311,2.189-.761,4.4-.853,6.592v.221a.584.584,0,0,1-.037.159,17.162,17.162,0,0,0-.288,5.479,2.094,2.094,0,0,0,.219.852c-.011.093-.024.183-.037.276a4.55,4.55,0,0,1-4.891-1.545,20.322,20.322,0,0,1-1.11-1.878,9.547,9.547,0,0,1-1-1.766,10.557,10.557,0,0,1-.241-2.765,7.124,7.124,0,0,0-1.6-4.05c-1.125-1.357-2.851-2.5-2.928-4.261s1.553-3.206,1.469-4.943c-.074-1.531-1.454-2.708-1.737-4.215-.384-2.037,1.316-3.953,1.239-6.023-.1-3.068-3.829-4.813-4.578-7.79-.438-1.755.246-3.569.533-5.358a12.245,12.245,0,0,0-.713-6.462,15.541,15.541,0,0,1-.992-2.648,2.847,2.847,0,0,1,.634-2.631,2.62,2.62,0,0,1,2.5-.461c2.277.662,3.388,3.209,3.968,5.517s1.044,4.879,2.886,6.376a14.816,14.816,0,0,0,3.108,1.618c2.105,1,3.79,2.112,3.97,4.5a35.886,35.886,0,0,1-.322,9.145,16.879,16.879,0,0,0-.542,4.39,21.993,21.993,0,0,0,1.171,4.3c.046.161.092.324.131.488a18.031,18.031,0,0,1,.044,6.885Z" transform="translate(31.095 -146.617)" fill="#8db99d"/>
    <path id="Path_34" data-name="Path 34" d="M68.39,234.974c-.621.82-1.515,1.4-2.2,2.163-2.167,2.425-1.849,6.113-1.3,9.317s1.123,6.783-.721,9.462c-.767,1.1-1.884,1.94-2.709,3.012a7.261,7.261,0,0,0-1.491,4.167c-.07,2.268.929,4.53.5,6.759-.635,3.292-4.043,5.227-5.8,8.089a8.848,8.848,0,0,0-1.137,6.173,17.209,17.209,0,0,1-3.342-.9,1.8,1.8,0,0,1-.778-.47.834.834,0,0,1-.082-.115,2.069,2.069,0,0,1-.232-.847,16.986,16.986,0,0,1,.294-5.474c.011-.053.024-.106.038-.159a33.66,33.66,0,0,0,.92-4.1,13.229,13.229,0,0,0-.053-2.712,17.647,17.647,0,0,0-.051-6.863c-.04-.163-.086-.326-.133-.487.042-.141.091-.282.146-.421.555-1.424,1.63-2.61,2.119-4.059.644-1.911.186-3.992.2-6.005A12.941,12.941,0,0,1,56.71,242.3c.9-.844,1.96-1.5,2.378-2.714a9.261,9.261,0,0,0-.179-5.111c-.471-1.861-.918-4,.195-5.564a4.573,4.573,0,0,1,2.331-1.581,6.337,6.337,0,0,1,6.392,1.367,4.979,4.979,0,0,1,.564,6.277Z" transform="translate(-1.634 -148.621)" fill="#98c6a8"/>
    <path id="Path_35" data-name="Path 35" d="M193.13,144.713a19.006,19.006,0,0,0-13.51,11.615c-4.273,10.187-2.051,22.807-1.976,23.918s13.093,5.927,16.814,5.927,4.5-3.729,4.5-3.729l-6.576-2.8,19.98-2.308h3.588l-1.976,3.331s3.9.408,6.506.5,4.376-5.061,4.668-7.624-11.512-25.057-13.275-26.389S205.322,142.567,193.13,144.713Z" transform="translate(-87.129 -93.182)" fill="#f19c8a"/>
    <path id="Path_36" data-name="Path 36" d="M234.085,84.918s1.671.94,1.521,3.98-1.093,7.615-2.043,8.8-4.277,1.65-4.277,1.65,1.814,4.309,3.165,5.421-1.357,5.209-3.99,3.865a25.848,25.848,0,0,1-5.685-4.721s2.2-4.066,1.453-6.206-3.577-9.651-1.453-11.7S229.478,81.011,234.085,84.918Z" transform="translate(-117.186 -52.438)" fill="url(#linear-gradient-4)"/>
    <path id="Path_37" data-name="Path 37" d="M211.439,188,210,205.946l4.4,2.306,3.574-.624-4.459-5.48Zm23.134-1s5.947,13.972,3.311,18.928l-2.031-.385Z" transform="translate(-109.171 -121.903)" fill="#d77560" opacity="0.25"/>
    <path id="Path_38" data-name="Path 38" d="M232.5,255.343s-2.247,1.918-1.244,3.409,2.2,1.449,3.2.782,2.959-2.25,5.3-1.524a10.269,10.269,0,0,1,2.9,1.189s1.23-.769.911-1.54a14.206,14.206,0,0,0-3.471-3.595c-.708-.324-3.647.671-3.647.671a5.3,5.3,0,0,0-3.946.608Z" transform="translate(-123.197 -166.655)" fill="url(#linear-gradient-5)"/>
    <path id="Path_39" data-name="Path 39" d="M288.384,244.531s-2.12.252-2.656,1.646a5.648,5.648,0,0,1-.728,1.564s1.2.229,1.7-.42,1.016-.376,1.016-.376l-.148.832s3.254.49,4.723-.037a6.142,6.142,0,0,0,2.1-1.147l.575-1.408a7.274,7.274,0,0,0-2.435-1.162A19.961,19.961,0,0,0,288.384,244.531Z" transform="translate(-159.266 -159.976)" fill="url(#linear-gradient-6)"/>
    <path id="Path_40" data-name="Path 40" d="M294.9,290s7.284,5.541,6.636,13.037-1.6,18.625-1.6,18.625-2.937,1.236-4.884,0-3.125-18.147-4.089-19.762S284.2,293,278,292.376Z" transform="translate(-154.591 -190.701)" fill="#25233a"/>
    <path id="Path_41" data-name="Path 41" d="M219,300.008a19.609,19.609,0,0,0,9.651,4.318c6.183,1.032,9.064,1.893,10.954,7.174s3.7,16.649,4.3,17.919,3.115.622,3.115.622,1.427-1.625,1.427-10.664c0-12.6.882-15.183-2.3-18.349A16.225,16.225,0,0,0,240.079,297Z" transform="translate(-115.182 -195.376)" fill="#3f3d56"/>
    <path id="Path_43" data-name="Path 43" d="M362.413,138.639l-47.234,2.542A2.077,2.077,0,0,1,313,139.213V105.477a2.5,2.5,0,0,1,2.44-2.5L362.481,102a2.28,2.28,0,0,1,2.321,2.239v31.869a2.533,2.533,0,0,1-2.39,2.531Z" transform="translate(-177.968 -65.129)" fill="#e9d6c0"/>
    <path id="Path_44" data-name="Path 44" d="M370.413,138.639l-47.237,2.542a2.077,2.077,0,0,1-2.176-1.97V105.478a2.494,2.494,0,0,1,2.438-2.5L370.485,102a2.28,2.28,0,0,1,2.317,2.237v31.871A2.532,2.532,0,0,1,370.413,138.639Z" transform="translate(-183.312 -65.129)" fill="#2bd0d0"/>
    <path id="Path_45" data-name="Path 45" d="M370.413,138.639l-47.237,2.542a2.077,2.077,0,0,1-2.176-1.97V105.478a2.494,2.494,0,0,1,2.438-2.5L370.485,102a2.28,2.28,0,0,1,2.317,2.237v31.871A2.532,2.532,0,0,1,370.413,138.639Z" transform="translate(-183.312 -65.129)" fill="#e6cdb1"/>
    <path id="Path_46" data-name="Path 46" d="M396.532,199.615,384.479,200.9s-3.67-.741-3.472-1.282,4.037-1.064,4.037-1.064V176.7a3.715,3.715,0,0,0-1.922-1.1,6.93,6.93,0,0,0-.817-.189,2.408,2.408,0,0,1-.684-.207c-.823-.425.086-1.166,1.364-1.2a3.2,3.2,0,0,1,.6.035h9.269s3.509.987,3.679,5.914,0,19.663,0,19.663Z" transform="translate(-223.387 -113.22)" fill="#735d43"/>
    <path id="Path_47" data-name="Path 47" d="M386.645,199.661l-2.218,1.236s-3.616-.741-3.42-1.283,3.983-1.064,3.983-1.064V176.7a4.959,4.959,0,0,0-1.894-1.1,9.511,9.511,0,0,0-1.478-.4c-.811-.425.085-1.166,1.344-1.2,1.072.148,3.183,1.338,3.32,2.017S386.645,199.661,386.645,199.661Z" transform="translate(-223.388 -113.22)" fill="#5a3a17"/>
    <path id="Path_3" data-name="Path 3" d="M234.025,371.226l-8.154,2.327a2.256,2.256,0,0,1-2.78-1.456,2.15,2.15,0,0,1,1.511-2.679l8.143-2.329a2.256,2.256,0,0,1,2.78,1.454,2.149,2.149,0,0,1-1.5,2.684Z" transform="translate(-117.854 -242.132)"/>
    <circle id="Ellipse_1" data-name="Ellipse 1" cx="3.5" cy="3.5" r="3.5" transform="translate(112.095 131)" fill="#25233a"/>
    <circle id="Ellipse_2" data-name="Ellipse 2" cx="2" cy="2" r="2" transform="translate(113.095 133)" fill="#3f3d56"/>
    <circle id="Ellipse_3" data-name="Ellipse 3" cx="3.5" cy="3.5" r="3.5" transform="translate(97.095 127)" fill="#25233a"/>
    <path id="Path_4" data-name="Path 4" d="M206.653,380.826A1.826,1.826,0,1,1,204.826,379a1.826,1.826,0,0,1,1.826,1.826Z" transform="translate(-104.496 -250.147)" fill="url(#linear-gradient-7)"/>
    <circle id="Ellipse_4" data-name="Ellipse 4" cx="3.5" cy="3.5" r="3.5" transform="translate(96.095 132)" fill="#25233a"/>
    <path id="Path_5" data-name="Path 5" d="M208.653,395.826A1.826,1.826,0,1,1,206.826,394,1.826,1.826,0,0,1,208.653,395.826Z" transform="translate(-105.831 -260.166)" fill="#3f3d56"/>
    <path id="Path_6" data-name="Path 6" d="M219.624,375.6l-16.865-3.336a2.158,2.158,0,0,1-1.716-2.536,2.2,2.2,0,0,1,2.585-1.682l16.865,3.33a2.158,2.158,0,0,1,1.716,2.536,2.2,2.2,0,0,1-2.585,1.688Z" transform="translate(-103.16 -242.799)" fill="#7e490d"/>
    <path id="Path_8" data-name="Path 8" d="M209.02,378.22l-8.148,2.333a2.255,2.255,0,0,1-2.781-1.457,2.151,2.151,0,0,1,1.51-2.681l8.148-2.326a2.255,2.255,0,0,1,2.779,1.455,2.151,2.151,0,0,1-1.508,2.676Z" transform="translate(-101.156 -246.807)" fill="#7e490d"/>
    <path id="Path_9" data-name="Path 9" d="M231.992,386.086l-1.038.183a4.277,4.277,0,0,1-.955.057l.433-.076a3.42,3.42,0,0,0,.832-.251Z" transform="translate(-122.53 -254.822)" fill="url(#linear-gradient-8)"/>
    <path id="Path_10" data-name="Path 10" d="M246.305,368.238a2.3,2.3,0,0,1-.485,1.415L239,368.209a2.362,2.362,0,0,0,.365-.818l4.2-1.3a2.059,2.059,0,0,1,1.631.192,2.229,2.229,0,0,1,1.024,1.344,2.37,2.37,0,0,1,.084.613Z" transform="translate(-128.541 -241.464)" fill="url(#linear-gradient-9)"/>
    <path id="Path_12" data-name="Path 12" d="M220.016,381.25a2.215,2.215,0,0,1-1.053.264,2.345,2.345,0,0,1-.442-.043l-7.441-1.463-.62-.121a2.172,2.172,0,0,1-.708.35l-.369.105-7.646,2.214A2.217,2.217,0,0,1,199,381.109a1.923,1.923,0,0,0,2.4.133c.933-.63,4.65-1.575,6.755-2.078a2.549,2.549,0,0,0,1.942-1.992,1.378,1.378,0,0,1,.027-.172,4.875,4.875,0,0,0,2.16,1.137,57.923,57.923,0,0,0,7.527,1.429,1.315,1.315,0,0,1,.208,1.685Z" transform="translate(-102.824 -250.811)" fill="#7e490d" opacity="0.31"/>
    <path id="Path_13" data-name="Path 13" d="M262.664,388a2.532,2.532,0,0,1-.664.664Q262.336,388.336,262.664,388Z" transform="translate(-143.904 -256.158)" fill="url(#linear-gradient-10)"/>
    <path id="Path_14" data-name="Path 14" d="M209.4,368.182a2.265,2.265,0,0,0,.565,1.039c-.07.013-.141.031-.213.05l-7.063,2.046a2.2,2.2,0,0,1-1.675-2.373A2.222,2.222,0,0,1,203.192,367a2.372,2.372,0,0,1,.448.044Z" transform="translate(-103.16 -242.131)" fill="url(#linear-gradient-11)"/>
    <path id="Path_26" data-name="Path 26" d="M45.6,415.351l-2.344,7.2a18.688,18.688,0,0,1-12.579,0L29,415S37.479,417.843,45.6,415.351Z" transform="translate(11.725 -274.192)" fill="#2bd0d0"/>
    <path id="Path_27" data-name="Path 27" d="M45.6,415.351l-2.344,7.2a18.688,18.688,0,0,1-12.579,0L29,415S37.479,417.843,45.6,415.351Z" transform="translate(11.725 -274.192)" fill="#c26855"/>
    <path id="Path_28" data-name="Path 28" d="M43.584,396l-.758,5.626-1.921,1c-8.185,2.464-16.741-.345-16.741-.345l-1.475-1.09L22,396Z" transform="translate(16.4 -261.501)" fill="#2bd0d0"/>
    <path id="Path_29" data-name="Path 29" d="M43.584,396l-.758,5.626-1.921,1c-8.185,2.464-16.741-.345-16.741-.345l-1.475-1.09L22,396Z" transform="translate(16.4 -261.501)" fill="#d77560"/>
    <ellipse id="Ellipse_5" data-name="Ellipse 5" cx="11" cy="2" rx="11" ry="2" transform="translate(38.095 132)" fill="#2bd0d0"/>
    <ellipse id="Ellipse_6" data-name="Ellipse 6" cx="11" cy="2" rx="11" ry="2" transform="translate(38.095 132)" fill="url(#linear-gradient-12)"/>
    <path id="Path_33" data-name="Path 33" d="M49.239,381.309a2.586,2.586,0,0,1-.167-.826,22.284,22.284,0,0,1,.212-5.329c.008-.051.017-.1.027-.154C49.253,377.107,49.434,379.232,49.239,381.309Z" transform="translate(-1.634 -247.475)" fill="url(#linear-gradient-13)"/>
    <path id="Path_42" data-name="Path 42" d="M294,388.653l.6,4.714h1.132s7.288.394,7.517.224-.351-3.733-3.112-3.633-2.942-.672-2.942-.672Zm12.286-3.269,1.168,4.6,12.764-1.731s.449-3.019-3.594-2.72c-1.067.078-1.862.819-3.145.825A4,4,0,0,1,310.321,385Z" transform="translate(-165.277 -254.154)" fill="#25233a"/>
    <path id="Path_48" data-name="Path 48" d="M262.332,389c-.293.332-.428.455-.256.182A1.862,1.862,0,0,0,262.332,389Z" transform="translate(-143.904 -256.826)" fill="url(#linear-gradient-14)"/>
  </g>
</svg>
